<svg xmlns="http://www.w3.org/2000/svg" xmlns:xlink="http://www.w3.org/1999/xlink" width="99" zoomAndPan="magnify" viewBox="0 0 74.25 75.749998" height="101" preserveAspectRatio="xMidYMid meet" version="1.0"><defs><g/><clipPath id="fd0202ac77"><path d="M 0 0.253906 L 73.507812 0.253906 L 73.507812 75.246094 L 0 75.246094 Z M 0 0.253906 " clip-rule="nonzero"/></clipPath><clipPath id="3af4179606"><path d="M 25 29 L 54 29 L 54 53 L 25 53 Z M 25 29 " clip-rule="nonzero"/></clipPath><clipPath id="249c7bffd9"><path d="M 29.113281 24.105469 L 53.773438 29.511719 L 48.371094 54.171875 L 23.710938 48.765625 Z M 29.113281 24.105469 " clip-rule="nonzero"/></clipPath><clipPath id="047ba2c22a"><path d="M 29.113281 24.105469 L 53.773438 29.511719 L 48.371094 54.171875 L 23.710938 48.765625 Z M 29.113281 24.105469 " clip-rule="nonzero"/></clipPath><clipPath id="6ff131e272"><path d="M 29.113281 24.105469 L 53.773438 29.511719 L 48.371094 54.171875 L 23.710938 48.765625 Z M 29.113281 24.105469 " clip-rule="nonzero"/></clipPath><clipPath id="70fa6732d5"><path d="M 18 27 L 63 27 L 63 64 L 18 64 Z M 18 27 " clip-rule="nonzero"/></clipPath><clipPath id="21570d1891"><path d="M 73.273438 48.980469 L 32.445312 74.714844 L 18.589844 52.730469 L 59.417969 26.996094 Z M 73.273438 48.980469 " clip-rule="nonzero"/></clipPath><clipPath id="3421fe7eba"><path d="M 73.273438 48.980469 L 32.445312 74.714844 L 18.589844 52.730469 L 59.417969 26.996094 Z M 73.273438 48.980469 " clip-rule="nonzero"/></clipPath></defs><g clip-path="url(#fd0202ac77)"><path fill="#ffffff" d="M 0 0.253906 L 73.507812 0.253906 L 73.507812 75.246094 L 0 75.246094 Z M 0 0.253906 " fill-opacity="1" fill-rule="nonzero"/></g><g fill="#3d3b3a" fill-opacity="1"><g transform="translate(16.1518, 44.723861)"><g><path d="M -2.890625 -0.421875 C -2.878906 -0.421875 -2.84375 -0.421875 -2.78125 -0.421875 C -2.726562 -0.429688 -2.648438 -0.445312 -2.546875 -0.46875 C -2.441406 -0.5 -2.3125 -0.53125 -2.15625 -0.5625 L -0.296875 -0.96875 C -0.0546875 -1.019531 0.148438 -1.03125 0.328125 -1 C 0.503906 -0.976562 0.644531 -0.910156 0.75 -0.796875 C 0.851562 -0.691406 0.921875 -0.5625 0.953125 -0.40625 C 0.992188 -0.25 0.992188 -0.109375 0.953125 0.015625 C 0.910156 0.140625 0.835938 0.210938 0.734375 0.234375 C 0.679688 0.242188 0.632812 0.234375 0.59375 0.203125 C 0.550781 0.179688 0.523438 0.140625 0.515625 0.078125 C 0.503906 0.0351562 0.503906 -0.00390625 0.515625 -0.046875 C 0.523438 -0.0859375 0.550781 -0.144531 0.59375 -0.21875 L 0.796875 -0.515625 L 0.78125 -0.328125 C 0.769531 -0.441406 0.734375 -0.519531 0.671875 -0.5625 C 0.617188 -0.601562 0.535156 -0.628906 0.421875 -0.640625 C 0.316406 -0.648438 0.179688 -0.632812 0.015625 -0.59375 L -2.0625 -0.140625 C -2.207031 -0.109375 -2.328125 -0.078125 -2.421875 -0.046875 C -2.523438 -0.0234375 -2.609375 -0.0078125 -2.671875 0 C -2.734375 0.0195312 -2.769531 0.0351562 -2.78125 0.046875 L -2.796875 0.40625 L -2.984375 0.421875 L -3.21875 -0.671875 L -3.03125 -0.703125 Z M -2.890625 -0.421875 "/></g></g></g><g fill="#3d3b3a" fill-opacity="1"><g transform="translate(15.559162, 41.882487)"><g><path d="M -0.03125 -1.78125 C -0.0195312 -1.488281 -0.0703125 -1.222656 -0.1875 -0.984375 C -0.3125 -0.753906 -0.484375 -0.566406 -0.703125 -0.421875 C -0.929688 -0.285156 -1.195312 -0.210938 -1.5 -0.203125 C -1.800781 -0.179688 -2.070312 -0.226562 -2.3125 -0.34375 C -2.550781 -0.46875 -2.742188 -0.644531 -2.890625 -0.875 C -3.035156 -1.101562 -3.113281 -1.363281 -3.125 -1.65625 C -3.144531 -1.9375 -3.09375 -2.1875 -2.96875 -2.40625 C -2.851562 -2.632812 -2.679688 -2.816406 -2.453125 -2.953125 C -2.234375 -3.085938 -1.972656 -3.160156 -1.671875 -3.171875 C -1.453125 -3.179688 -1.242188 -3.148438 -1.046875 -3.078125 C -0.847656 -3.015625 -0.675781 -2.914062 -0.53125 -2.78125 C -0.382812 -2.65625 -0.265625 -2.503906 -0.171875 -2.328125 C -0.0859375 -2.160156 -0.0390625 -1.976562 -0.03125 -1.78125 Z M -0.3125 -1.8125 C -0.320312 -2 -0.378906 -2.15625 -0.484375 -2.28125 C -0.585938 -2.414062 -0.726562 -2.515625 -0.90625 -2.578125 C -1.082031 -2.648438 -1.289062 -2.679688 -1.53125 -2.671875 C -1.800781 -2.660156 -2.035156 -2.609375 -2.234375 -2.515625 C -2.441406 -2.421875 -2.601562 -2.296875 -2.71875 -2.140625 C -2.832031 -1.984375 -2.882812 -1.804688 -2.875 -1.609375 C -2.863281 -1.316406 -2.742188 -1.09375 -2.515625 -0.9375 C -2.285156 -0.78125 -1.984375 -0.707031 -1.609375 -0.71875 C -1.347656 -0.726562 -1.117188 -0.78125 -0.921875 -0.875 C -0.722656 -0.976562 -0.570312 -1.109375 -0.46875 -1.265625 C -0.363281 -1.429688 -0.3125 -1.613281 -0.3125 -1.8125 Z M -0.3125 -1.8125 "/></g></g></g><g fill="#3d3b3a" fill-opacity="1"><g transform="translate(15.471969, 37.119715)"><g><path d="M -2.9375 -0.703125 L -2.765625 -1.765625 L -2.578125 -1.765625 L -2.546875 -1.4375 C -2.523438 -1.425781 -2.488281 -1.414062 -2.4375 -1.40625 C -2.394531 -1.394531 -2.320312 -1.378906 -2.21875 -1.359375 C -2.125 -1.347656 -1.984375 -1.328125 -1.796875 -1.296875 L -1.015625 -1.171875 C -0.804688 -1.140625 -0.628906 -1.144531 -0.484375 -1.1875 C -0.347656 -1.238281 -0.238281 -1.316406 -0.15625 -1.421875 C -0.0820312 -1.535156 -0.0351562 -1.671875 -0.015625 -1.828125 C 0.00390625 -1.960938 0 -2.085938 -0.03125 -2.203125 C -0.0703125 -2.328125 -0.15625 -2.429688 -0.28125 -2.515625 C -0.40625 -2.597656 -0.582031 -2.660156 -0.8125 -2.703125 L -1.453125 -2.796875 C -1.597656 -2.816406 -1.726562 -2.835938 -1.84375 -2.859375 C -1.96875 -2.878906 -2.066406 -2.890625 -2.140625 -2.890625 C -2.222656 -2.898438 -2.28125 -2.90625 -2.3125 -2.90625 L -2.4375 -2.5625 L -2.625 -2.59375 L -2.46875 -3.578125 L -2.28125 -3.578125 L -2.25 -3.265625 C -2.238281 -3.265625 -2.207031 -3.253906 -2.15625 -3.234375 C -2.101562 -3.222656 -2.015625 -3.207031 -1.890625 -3.1875 C -1.773438 -3.164062 -1.613281 -3.140625 -1.40625 -3.109375 L -0.734375 -3 C -0.441406 -2.957031 -0.210938 -2.875 -0.046875 -2.75 C 0.109375 -2.625 0.21875 -2.472656 0.28125 -2.296875 C 0.34375 -2.117188 0.359375 -1.929688 0.328125 -1.734375 C 0.265625 -1.359375 0.117188 -1.082031 -0.109375 -0.90625 C -0.347656 -0.738281 -0.648438 -0.679688 -1.015625 -0.734375 L -1.859375 -0.875 C -2.046875 -0.90625 -2.191406 -0.925781 -2.296875 -0.9375 C -2.398438 -0.945312 -2.472656 -0.957031 -2.515625 -0.96875 C -2.566406 -0.976562 -2.601562 -0.976562 -2.625 -0.96875 L -2.75 -0.671875 Z M -2.9375 -0.703125 "/></g></g></g><g fill="#3d3b3a" fill-opacity="1"><g transform="translate(16.356806, 32.536197)"><g><path d="M 0.09375 -0.25 L -0.078125 -0.296875 L -0.0625 -0.625 C -0.09375 -0.632812 -0.125 -0.648438 -0.15625 -0.671875 C -0.195312 -0.691406 -0.25 -0.710938 -0.3125 -0.734375 C -0.375 -0.765625 -0.441406 -0.789062 -0.515625 -0.8125 C -0.597656 -0.84375 -0.675781 -0.867188 -0.75 -0.890625 L -1.65625 -1.234375 C -1.800781 -1.285156 -1.921875 -1.328125 -2.015625 -1.359375 C -2.117188 -1.398438 -2.203125 -1.425781 -2.265625 -1.4375 C -2.328125 -1.457031 -2.363281 -1.46875 -2.375 -1.46875 L -2.5625 -1.1875 L -2.71875 -1.265625 L -2.34375 -2.328125 C -2.226562 -2.628906 -2.082031 -2.835938 -1.90625 -2.953125 C -1.738281 -3.066406 -1.539062 -3.082031 -1.3125 -3 C -1.15625 -2.945312 -1.03125 -2.851562 -0.9375 -2.71875 C -0.851562 -2.582031 -0.800781 -2.425781 -0.78125 -2.25 C -0.769531 -2.070312 -0.800781 -1.878906 -0.875 -1.671875 L -0.984375 -1.375 L -1.203125 -1.453125 L -1.109375 -1.71875 C -1.035156 -1.914062 -1.023438 -2.085938 -1.078125 -2.234375 C -1.128906 -2.378906 -1.242188 -2.484375 -1.421875 -2.546875 C -1.597656 -2.609375 -1.75 -2.609375 -1.875 -2.546875 C -2 -2.492188 -2.09375 -2.378906 -2.15625 -2.203125 L -2.265625 -1.921875 C -2.253906 -1.910156 -2.238281 -1.898438 -2.21875 -1.890625 C -2.195312 -1.878906 -2.164062 -1.863281 -2.125 -1.84375 C -2.082031 -1.832031 -2.015625 -1.804688 -1.921875 -1.765625 C -1.835938 -1.734375 -1.726562 -1.695312 -1.59375 -1.65625 L -0.609375 -1.28125 C -0.472656 -1.238281 -0.359375 -1.203125 -0.265625 -1.171875 C -0.171875 -1.140625 -0.09375 -1.113281 -0.03125 -1.09375 C 0.0195312 -1.082031 0.0664062 -1.070312 0.109375 -1.0625 L 0.28125 -1.3125 L 0.453125 -1.234375 Z M 0.96875 -2.5 C 0.925781 -2.363281 0.851562 -2.25 0.75 -2.15625 C 0.65625 -2.070312 0.53125 -2 0.375 -1.9375 C 0.21875 -1.882812 0.0078125 -1.835938 -0.25 -1.796875 L -0.953125 -1.6875 L -0.90625 -2.09375 L 0.046875 -2.3125 C 0.203125 -2.351562 0.332031 -2.394531 0.4375 -2.4375 C 0.550781 -2.488281 0.640625 -2.539062 0.703125 -2.59375 C 0.773438 -2.644531 0.835938 -2.707031 0.890625 -2.78125 L 1.03125 -2.71875 C 1.03125 -2.6875 1.023438 -2.648438 1.015625 -2.609375 C 1.003906 -2.578125 0.988281 -2.539062 0.96875 -2.5 Z M 0.96875 -2.5 "/></g></g></g><g fill="#3d3b3a" fill-opacity="1"><g transform="translate(17.891523, 28.654124)"><g><path d="M 0.71875 -2.578125 L -0.25 -3.171875 C -0.425781 -3.273438 -0.566406 -3.359375 -0.671875 -3.421875 C -0.773438 -3.492188 -0.851562 -3.539062 -0.90625 -3.5625 C -0.96875 -3.59375 -1 -3.609375 -1 -3.609375 L -1.265625 -3.34375 L -1.40625 -3.453125 L -0.90625 -4.28125 L -0.734375 -4.203125 L -0.828125 -3.890625 C -0.828125 -3.890625 -0.800781 -3.867188 -0.75 -3.828125 C -0.695312 -3.796875 -0.617188 -3.742188 -0.515625 -3.671875 C -0.410156 -3.609375 -0.269531 -3.523438 -0.09375 -3.421875 L 0.9375 -2.796875 C 1.03125 -2.742188 1.125 -2.6875 1.21875 -2.625 C 1.3125 -2.5625 1.410156 -2.5 1.515625 -2.4375 L 1.390625 -2.234375 L -1.734375 -1.96875 L -1.6875 -2.0625 L -0.515625 -1.34375 C -0.335938 -1.238281 -0.195312 -1.15625 -0.09375 -1.09375 C 0.0078125 -1.039062 0.0859375 -1 0.140625 -0.96875 C 0.203125 -0.9375 0.234375 -0.921875 0.234375 -0.921875 L 0.5 -1.15625 L 0.640625 -1.046875 L 0.125 -0.21875 L -0.03125 -0.296875 L 0.046875 -0.609375 C 0.0546875 -0.617188 0.0351562 -0.640625 -0.015625 -0.671875 C -0.0664062 -0.710938 -0.144531 -0.765625 -0.25 -0.828125 C -0.351562 -0.898438 -0.492188 -0.988281 -0.671875 -1.09375 L -1.421875 -1.546875 C -1.554688 -1.628906 -1.664062 -1.695312 -1.75 -1.75 C -1.832031 -1.800781 -1.894531 -1.835938 -1.9375 -1.859375 C -1.988281 -1.878906 -2.023438 -1.890625 -2.046875 -1.890625 L -2.28125 -1.671875 L -2.4375 -1.78125 L -2.0625 -2.375 L 0.765625 -2.65625 Z M 0.71875 -2.578125 "/></g></g></g><g fill="#3d3b3a" fill-opacity="1"><g transform="translate(20.524975, 24.697049)"><g><path d="M 0.15625 -0.1875 L 0.015625 -0.296875 L 0.15625 -0.578125 C 0.15625 -0.597656 0.128906 -0.628906 0.078125 -0.671875 C 0.0351562 -0.710938 -0.0195312 -0.769531 -0.09375 -0.84375 C -0.175781 -0.914062 -0.273438 -1.003906 -0.390625 -1.109375 L -1.125 -1.734375 C -1.226562 -1.828125 -1.320312 -1.90625 -1.40625 -1.96875 C -1.488281 -2.039062 -1.550781 -2.097656 -1.59375 -2.140625 C -1.644531 -2.179688 -1.679688 -2.203125 -1.703125 -2.203125 L -1.96875 -2.015625 L -2.109375 -2.15625 L -1.390625 -2.984375 L -1.25 -2.859375 L -1.390625 -2.578125 C -1.378906 -2.566406 -1.351562 -2.539062 -1.3125 -2.5 C -1.269531 -2.457031 -1.210938 -2.398438 -1.140625 -2.328125 C -1.066406 -2.253906 -0.96875 -2.160156 -0.84375 -2.046875 L -0.109375 -1.421875 C 0.015625 -1.304688 0.117188 -1.21875 0.203125 -1.15625 C 0.285156 -1.09375 0.347656 -1.046875 0.390625 -1.015625 C 0.429688 -0.984375 0.457031 -0.960938 0.46875 -0.953125 L 0.734375 -1.140625 L 0.875 -1.015625 Z M 0.15625 -0.1875 "/></g></g></g><g fill="#3d3b3a" fill-opacity="1"><g transform="translate(22.481041, 22.529605)"><g><path d="M 1.921875 -1.5625 C 1.847656 -1.519531 1.773438 -1.472656 1.703125 -1.421875 C 1.640625 -1.378906 1.582031 -1.332031 1.53125 -1.28125 L 0.1875 -0.15625 L 0.046875 -0.296875 L 0.25 -0.5625 C 0.25 -0.582031 0.226562 -0.613281 0.1875 -0.65625 C 0.15625 -0.695312 0.101562 -0.757812 0.03125 -0.84375 C -0.0390625 -0.9375 -0.125 -1.039062 -0.21875 -1.15625 L -0.84375 -1.890625 C -0.9375 -2.003906 -1.015625 -2.097656 -1.078125 -2.171875 C -1.148438 -2.253906 -1.207031 -2.316406 -1.25 -2.359375 C -1.289062 -2.410156 -1.320312 -2.441406 -1.34375 -2.453125 L -1.640625 -2.3125 L -1.75 -2.453125 L -0.484375 -3.515625 C -0.453125 -3.546875 -0.414062 -3.578125 -0.375 -3.609375 C -0.332031 -3.648438 -0.285156 -3.691406 -0.234375 -3.734375 C -0.191406 -3.773438 -0.144531 -3.816406 -0.09375 -3.859375 L 0.390625 -3.40625 L 0.265625 -3.234375 L -0.15625 -3.453125 C -0.175781 -3.441406 -0.195312 -3.425781 -0.21875 -3.40625 C -0.25 -3.382812 -0.28125 -3.363281 -0.3125 -3.34375 L -0.75 -2.96875 C -0.800781 -2.925781 -0.84375 -2.882812 -0.875 -2.84375 C -0.914062 -2.8125 -0.953125 -2.78125 -0.984375 -2.75 C -0.972656 -2.738281 -0.945312 -2.707031 -0.90625 -2.65625 C -0.875 -2.601562 -0.832031 -2.546875 -0.78125 -2.484375 C -0.726562 -2.421875 -0.675781 -2.359375 -0.625 -2.296875 L 0.265625 -1.234375 C 0.304688 -1.191406 0.347656 -1.140625 0.390625 -1.078125 C 0.441406 -1.023438 0.484375 -0.976562 0.515625 -0.9375 C 0.554688 -0.90625 0.582031 -0.882812 0.59375 -0.875 C 0.644531 -0.894531 0.6875 -0.921875 0.71875 -0.953125 C 0.75 -0.984375 0.796875 -1.019531 0.859375 -1.0625 L 1.21875 -1.375 C 1.289062 -1.4375 1.34375 -1.476562 1.375 -1.5 C 1.40625 -1.53125 1.425781 -1.554688 1.4375 -1.578125 C 1.457031 -1.609375 1.476562 -1.628906 1.5 -1.640625 L 1.390625 -2.171875 L 1.59375 -2.28125 Z M 0.796875 -2.03125 L 0.53125 -2.265625 C 0.5 -2.253906 0.460938 -2.238281 0.421875 -2.21875 C 0.390625 -2.195312 0.359375 -2.171875 0.328125 -2.140625 L 0.015625 -1.890625 C -0.015625 -1.859375 -0.046875 -1.820312 -0.078125 -1.78125 C -0.117188 -1.738281 -0.160156 -1.703125 -0.203125 -1.671875 L -0.390625 -1.890625 C -0.335938 -1.910156 -0.289062 -1.9375 -0.25 -1.96875 C -0.207031 -2.007812 -0.171875 -2.046875 -0.140625 -2.078125 L 0.171875 -2.328125 C 0.203125 -2.359375 0.234375 -2.382812 0.265625 -2.40625 C 0.296875 -2.4375 0.316406 -2.46875 0.328125 -2.5 L 0.15625 -2.796875 L 0.328125 -2.9375 L 0.96875 -2.171875 Z M 0.796875 -2.03125 "/></g></g></g><g fill="#3d3b3a" fill-opacity="1"><g transform="translate(25.698273, 19.950311)"><g><path d="M 1.6875 -0.875 C 1.414062 -0.726562 1.144531 -0.644531 0.875 -0.625 C 0.601562 -0.613281 0.347656 -0.664062 0.109375 -0.78125 C -0.117188 -0.90625 -0.316406 -1.113281 -0.484375 -1.40625 C -0.585938 -1.59375 -0.65625 -1.785156 -0.6875 -1.984375 C -0.71875 -2.191406 -0.703125 -2.394531 -0.640625 -2.59375 C -0.578125 -2.789062 -0.476562 -2.972656 -0.34375 -3.140625 C -0.207031 -3.316406 -0.0195312 -3.472656 0.21875 -3.609375 C 0.34375 -3.679688 0.476562 -3.742188 0.625 -3.796875 C 0.78125 -3.847656 0.925781 -3.882812 1.0625 -3.90625 L 1.421875 -3.328125 L 1.21875 -3.203125 L 0.875 -3.53125 C 0.789062 -3.53125 0.695312 -3.507812 0.59375 -3.46875 C 0.488281 -3.4375 0.394531 -3.398438 0.3125 -3.359375 C 0.0820312 -3.222656 -0.0703125 -3.066406 -0.15625 -2.890625 C -0.25 -2.722656 -0.28125 -2.539062 -0.25 -2.34375 C -0.226562 -2.15625 -0.164062 -1.957031 -0.0625 -1.75 C 0.0703125 -1.507812 0.234375 -1.328125 0.421875 -1.203125 C 0.609375 -1.078125 0.804688 -1.007812 1.015625 -1 C 1.222656 -0.988281 1.421875 -1.035156 1.609375 -1.140625 C 1.691406 -1.191406 1.78125 -1.257812 1.875 -1.34375 C 1.96875 -1.425781 2.035156 -1.519531 2.078125 -1.625 L 2.109375 -1.328125 L 1.859375 -1.796875 C 1.796875 -1.890625 1.738281 -1.96875 1.6875 -2.03125 C 1.644531 -2.101562 1.609375 -2.160156 1.578125 -2.203125 L 1.25 -2.078125 L 1.171875 -2.265625 L 2.046875 -2.75 L 2.140625 -2.578125 L 1.96875 -2.4375 C 1.976562 -2.414062 2 -2.375 2.03125 -2.3125 C 2.0625 -2.257812 2.097656 -2.195312 2.140625 -2.125 C 2.203125 -2.007812 2.25 -1.914062 2.28125 -1.84375 C 2.320312 -1.78125 2.375 -1.707031 2.4375 -1.625 C 2.363281 -1.488281 2.253906 -1.347656 2.109375 -1.203125 C 1.960938 -1.066406 1.820312 -0.957031 1.6875 -0.875 Z M 1.6875 -0.875 "/></g></g></g><g fill="#3d3b3a" fill-opacity="1"><g transform="translate(29.774518, 17.839882)"><g><path d="M 2.375 -0.75 C 2.269531 -0.726562 2.179688 -0.707031 2.109375 -0.6875 C 2.035156 -0.664062 1.96875 -0.644531 1.90625 -0.625 L 0.234375 -0.078125 L 0.15625 -0.25 L 0.4375 -0.421875 C 0.4375 -0.441406 0.425781 -0.476562 0.40625 -0.53125 C 0.394531 -0.582031 0.375 -0.660156 0.34375 -0.765625 C 0.3125 -0.878906 0.273438 -1.007812 0.234375 -1.15625 L -0.078125 -2.078125 C -0.117188 -2.210938 -0.160156 -2.328125 -0.203125 -2.421875 C -0.242188 -2.523438 -0.269531 -2.601562 -0.28125 -2.65625 C -0.300781 -2.71875 -0.320312 -2.753906 -0.34375 -2.765625 L -0.65625 -2.75 L -0.703125 -2.921875 L 0.859375 -3.4375 C 0.910156 -3.445312 0.957031 -3.460938 1 -3.484375 C 1.050781 -3.503906 1.109375 -3.523438 1.171875 -3.546875 C 1.234375 -3.566406 1.289062 -3.585938 1.34375 -3.609375 L 1.640625 -3 L 1.453125 -2.921875 L 1.140625 -3.25 C 1.109375 -3.25 1.078125 -3.242188 1.046875 -3.234375 C 1.023438 -3.222656 0.992188 -3.210938 0.953125 -3.203125 L 0.40625 -3.03125 C 0.34375 -3.007812 0.285156 -2.988281 0.234375 -2.96875 C 0.191406 -2.957031 0.148438 -2.9375 0.109375 -2.90625 C 0.117188 -2.894531 0.128906 -2.859375 0.140625 -2.796875 C 0.148438 -2.742188 0.164062 -2.675781 0.1875 -2.59375 C 0.21875 -2.519531 0.25 -2.441406 0.28125 -2.359375 L 0.703125 -1.046875 C 0.722656 -0.992188 0.742188 -0.929688 0.765625 -0.859375 C 0.796875 -0.785156 0.820312 -0.722656 0.84375 -0.671875 C 0.863281 -0.628906 0.875 -0.597656 0.875 -0.578125 C 0.925781 -0.585938 0.972656 -0.597656 1.015625 -0.609375 C 1.066406 -0.628906 1.128906 -0.648438 1.203125 -0.671875 L 1.65625 -0.828125 C 1.738281 -0.847656 1.800781 -0.863281 1.84375 -0.875 C 1.882812 -0.894531 1.914062 -0.910156 1.9375 -0.921875 C 1.957031 -0.941406 1.976562 -0.953125 2 -0.953125 L 2.109375 -1.5 L 2.328125 -1.53125 Z M 1.5 -1.609375 L 1.328125 -1.90625 C 1.304688 -1.90625 1.273438 -1.898438 1.234375 -1.890625 C 1.203125 -1.878906 1.160156 -1.867188 1.109375 -1.859375 L 0.734375 -1.734375 C 0.691406 -1.710938 0.644531 -1.691406 0.59375 -1.671875 C 0.539062 -1.648438 0.488281 -1.628906 0.4375 -1.609375 L 0.34375 -1.890625 C 0.40625 -1.898438 0.460938 -1.910156 0.515625 -1.921875 C 0.566406 -1.941406 0.613281 -1.960938 0.65625 -1.984375 L 1.03125 -2.109375 C 1.082031 -2.117188 1.125 -2.128906 1.15625 -2.140625 C 1.195312 -2.160156 1.222656 -2.175781 1.234375 -2.1875 L 1.1875 -2.546875 L 1.390625 -2.609375 L 1.703125 -1.671875 Z M 1.5 -1.609375 "/></g></g></g><g fill="#3d3b3a" fill-opacity="1"><g transform="translate(33.716334, 16.640605)"><g><path d="M 2.46875 -1.0625 L 2.328125 -2.1875 C 2.304688 -2.382812 2.285156 -2.546875 2.265625 -2.671875 C 2.253906 -2.796875 2.238281 -2.882812 2.21875 -2.9375 C 2.207031 -2.988281 2.203125 -3.019531 2.203125 -3.03125 L 1.84375 -3.078125 L 1.828125 -3.265625 L 2.78125 -3.375 L 2.828125 -3.203125 L 2.53125 -3.078125 C 2.53125 -3.066406 2.53125 -3.03125 2.53125 -2.96875 C 2.539062 -2.914062 2.550781 -2.828125 2.5625 -2.703125 C 2.582031 -2.578125 2.601562 -2.414062 2.625 -2.21875 L 2.78125 -1.015625 C 2.789062 -0.910156 2.800781 -0.800781 2.8125 -0.6875 C 2.832031 -0.570312 2.847656 -0.457031 2.859375 -0.34375 L 2.625 -0.3125 L 0.453125 -2.59375 L 0.5625 -2.609375 L 0.734375 -1.234375 C 0.753906 -1.035156 0.773438 -0.875 0.796875 -0.75 C 0.816406 -0.632812 0.832031 -0.546875 0.84375 -0.484375 C 0.863281 -0.421875 0.875 -0.382812 0.875 -0.375 L 1.21875 -0.34375 L 1.21875 -0.15625 L 0.25 -0.03125 L 0.21875 -0.21875 L 0.515625 -0.328125 C 0.523438 -0.335938 0.523438 -0.375 0.515625 -0.4375 C 0.515625 -0.5 0.503906 -0.59375 0.484375 -0.71875 C 0.472656 -0.84375 0.457031 -1.003906 0.4375 -1.203125 L 0.328125 -2.078125 C 0.304688 -2.234375 0.289062 -2.359375 0.28125 -2.453125 C 0.269531 -2.554688 0.253906 -2.628906 0.234375 -2.671875 C 0.222656 -2.722656 0.210938 -2.757812 0.203125 -2.78125 L -0.109375 -2.828125 L -0.125 -3.015625 L 0.578125 -3.109375 L 2.5625 -1.0625 Z M 2.46875 -1.0625 "/></g></g></g><g fill="#3d3b3a" fill-opacity="1"><g transform="translate(38.452286, 16.235471)"><g><path d="M 0.25 0.015625 L 0.25 -0.171875 L 0.5625 -0.234375 C 0.570312 -0.253906 0.578125 -0.289062 0.578125 -0.34375 C 0.578125 -0.40625 0.582031 -0.488281 0.59375 -0.59375 C 0.601562 -0.707031 0.613281 -0.835938 0.625 -0.984375 L 0.65625 -1.953125 C 0.664062 -2.097656 0.671875 -2.222656 0.671875 -2.328125 C 0.671875 -2.441406 0.671875 -2.53125 0.671875 -2.59375 C 0.671875 -2.65625 0.671875 -2.691406 0.671875 -2.703125 L 0.359375 -2.796875 L 0.375 -2.984375 L 1.46875 -2.9375 L 1.46875 -2.75 L 1.15625 -2.6875 C 1.144531 -2.675781 1.132812 -2.640625 1.125 -2.578125 C 1.125 -2.523438 1.117188 -2.445312 1.109375 -2.34375 C 1.097656 -2.238281 1.085938 -2.101562 1.078125 -1.9375 L 1.046875 -0.96875 C 1.035156 -0.800781 1.03125 -0.664062 1.03125 -0.5625 C 1.03125 -0.457031 1.03125 -0.375 1.03125 -0.3125 C 1.039062 -0.257812 1.046875 -0.226562 1.046875 -0.21875 L 1.359375 -0.125 L 1.34375 0.0625 Z M 0.25 0.015625 "/></g></g></g><g fill="#3d3b3a" fill-opacity="1"><g transform="translate(41.3663, 16.41543)"><g><path d="M 2.4375 0.515625 C 2.34375 0.492188 2.253906 0.472656 2.171875 0.453125 C 2.097656 0.429688 2.023438 0.410156 1.953125 0.390625 L 0.25 0.046875 L 0.265625 -0.140625 L 0.578125 -0.15625 C 0.597656 -0.175781 0.613281 -0.210938 0.625 -0.265625 C 0.632812 -0.316406 0.648438 -0.394531 0.671875 -0.5 C 0.703125 -0.613281 0.734375 -0.742188 0.765625 -0.890625 L 0.953125 -1.84375 C 0.984375 -1.976562 1.003906 -2.097656 1.015625 -2.203125 C 1.035156 -2.316406 1.050781 -2.40625 1.0625 -2.46875 C 1.070312 -2.53125 1.070312 -2.566406 1.0625 -2.578125 L 0.78125 -2.703125 L 0.84375 -2.890625 L 2.453125 -2.5625 C 2.503906 -2.550781 2.550781 -2.539062 2.59375 -2.53125 C 2.644531 -2.519531 2.703125 -2.507812 2.765625 -2.5 C 2.828125 -2.5 2.890625 -2.492188 2.953125 -2.484375 L 2.921875 -1.796875 L 2.6875 -1.8125 L 2.59375 -2.265625 C 2.570312 -2.285156 2.546875 -2.296875 2.515625 -2.296875 C 2.492188 -2.304688 2.460938 -2.316406 2.421875 -2.328125 L 1.84375 -2.4375 C 1.78125 -2.445312 1.722656 -2.457031 1.671875 -2.46875 C 1.628906 -2.476562 1.582031 -2.484375 1.53125 -2.484375 C 1.53125 -2.472656 1.519531 -2.4375 1.5 -2.375 C 1.488281 -2.3125 1.472656 -2.238281 1.453125 -2.15625 C 1.441406 -2.070312 1.425781 -1.988281 1.40625 -1.90625 L 1.140625 -0.5625 C 1.128906 -0.5 1.113281 -0.429688 1.09375 -0.359375 C 1.082031 -0.285156 1.070312 -0.222656 1.0625 -0.171875 C 1.0625 -0.128906 1.0625 -0.0976562 1.0625 -0.078125 C 1.101562 -0.0546875 1.144531 -0.0390625 1.1875 -0.03125 C 1.226562 -0.0195312 1.285156 -0.0078125 1.359375 0 L 1.84375 0.09375 C 1.925781 0.113281 1.988281 0.125 2.03125 0.125 C 2.070312 0.132812 2.109375 0.140625 2.140625 0.140625 C 2.171875 0.140625 2.195312 0.144531 2.21875 0.15625 L 2.578125 -0.265625 L 2.78125 -0.171875 Z M 2.09375 -0.65625 L 2.109375 -1 C 2.085938 -1.007812 2.054688 -1.019531 2.015625 -1.03125 C 1.972656 -1.050781 1.925781 -1.066406 1.875 -1.078125 L 1.484375 -1.140625 C 1.453125 -1.148438 1.40625 -1.15625 1.34375 -1.15625 C 1.289062 -1.164062 1.238281 -1.175781 1.1875 -1.1875 L 1.234375 -1.46875 C 1.285156 -1.445312 1.335938 -1.429688 1.390625 -1.421875 C 1.453125 -1.410156 1.5 -1.398438 1.53125 -1.390625 L 1.921875 -1.328125 C 1.972656 -1.316406 2.019531 -1.304688 2.0625 -1.296875 C 2.101562 -1.285156 2.132812 -1.285156 2.15625 -1.296875 L 2.296875 -1.625 L 2.5 -1.578125 L 2.296875 -0.609375 Z M 2.09375 -0.65625 "/></g></g></g><g fill="#3d3b3a" fill-opacity="1"><g transform="translate(45.432193, 17.396196)"><g><path d="M 0.546875 0.25 C 0.453125 0.21875 0.390625 0.160156 0.359375 0.078125 C 0.328125 0.00390625 0.328125 -0.0703125 0.359375 -0.15625 C 0.378906 -0.21875 0.410156 -0.257812 0.453125 -0.28125 C 0.492188 -0.3125 0.539062 -0.332031 0.59375 -0.34375 C 0.644531 -0.363281 0.703125 -0.363281 0.765625 -0.34375 C 0.847656 -0.3125 0.910156 -0.253906 0.953125 -0.171875 C 0.992188 -0.0976562 1 -0.0195312 0.96875 0.0625 C 0.9375 0.144531 0.878906 0.203125 0.796875 0.234375 C 0.710938 0.273438 0.628906 0.28125 0.546875 0.25 Z M 0.546875 0.25 "/></g></g></g><g fill="#3d3b3a" fill-opacity="1"><g transform="translate(47.810231, 18.288842)"><g><path d="M 0.015625 0 L 0.09375 -0.171875 L 0.34375 -0.109375 L 2.53125 -1.9375 L 2.890625 -1.953125 L 2.515625 1.0625 L 2.703125 1.234375 L 2.59375 1.40625 L 1.6875 0.921875 L 1.78125 0.75 L 2.09375 0.828125 L 2.171875 0.03125 L 2.21875 -0.15625 L 2.375 -1.640625 L 2.515625 -1.640625 L 1.359375 -0.609375 L 1.21875 -0.5 L 0.640625 0.046875 L 0.875 0.25 L 0.765625 0.421875 Z M 1.09375 -0.5 L 1.21875 -0.734375 C 1.28125 -0.703125 1.359375 -0.65625 1.453125 -0.59375 C 1.554688 -0.53125 1.675781 -0.460938 1.8125 -0.390625 C 1.957031 -0.316406 2.082031 -0.253906 2.1875 -0.203125 C 2.289062 -0.148438 2.363281 -0.113281 2.40625 -0.09375 L 2.28125 0.140625 C 2.175781 0.0859375 2.070312 0.0351562 1.96875 -0.015625 C 1.875 -0.0664062 1.78125 -0.117188 1.6875 -0.171875 C 1.59375 -0.222656 1.5 -0.273438 1.40625 -0.328125 C 1.3125 -0.378906 1.207031 -0.4375 1.09375 -0.5 Z M 1.09375 -0.5 "/></g></g></g><g fill="#3d3b3a" fill-opacity="1"><g transform="translate(51.513042, 20.471925)"><g><path d="M 0.203125 0.15625 L 0.296875 -0.015625 L 0.59375 0.125 C 0.625 0.113281 0.65625 0.0820312 0.6875 0.03125 C 0.71875 -0.0078125 0.765625 -0.0664062 0.828125 -0.140625 C 0.898438 -0.222656 0.984375 -0.328125 1.078125 -0.453125 L 1.65625 -1.21875 C 1.75 -1.332031 1.828125 -1.4375 1.890625 -1.53125 C 1.960938 -1.625 2.015625 -1.691406 2.046875 -1.734375 C 2.085938 -1.785156 2.101562 -1.820312 2.09375 -1.84375 L 1.890625 -2.09375 L 2.03125 -2.21875 L 2.890625 -1.5625 L 2.765625 -1.421875 L 2.46875 -1.546875 C 2.46875 -1.535156 2.445312 -1.503906 2.40625 -1.453125 C 2.375 -1.410156 2.320312 -1.351562 2.25 -1.28125 C 2.1875 -1.207031 2.101562 -1.101562 2 -0.96875 L 1.421875 -0.203125 C 1.316406 -0.0664062 1.234375 0.0390625 1.171875 0.125 C 1.117188 0.21875 1.070312 0.285156 1.03125 0.328125 C 1 0.378906 0.976562 0.410156 0.96875 0.421875 L 1.171875 0.65625 L 1.0625 0.8125 Z M 0.203125 0.15625 "/></g></g></g><g clip-path="url(#3af4179606)"><g clip-path="url(#249c7bffd9)"><g clip-path="url(#047ba2c22a)"><g clip-path="url(#6ff131e272)"><path fill="#000000" d="M 53.367188 30.972656 C 53.363281 30.613281 53.234375 30.25 53.003906 29.925781 C 52.738281 29.554688 52.457031 29.316406 52.125 29.195312 C 51.796875 29.078125 51.425781 29.078125 50.984375 29.195312 C 50.859375 29.230469 50.730469 29.269531 50.605469 29.308594 C 50.480469 29.347656 50.355469 29.386719 50.230469 29.429688 C 49.179688 29.761719 48.1875 30.21875 47.234375 30.742188 C 46.28125 31.265625 45.367188 31.859375 44.46875 32.480469 C 43.789062 32.949219 43.09375 33.253906 42.375 33.382812 C 41.65625 33.515625 40.910156 33.476562 40.125 33.253906 C 38.917969 32.910156 37.710938 32.554688 36.503906 32.207031 C 35.300781 31.859375 34.09375 31.511719 32.878906 31.179688 C 32.238281 31.007812 31.589844 30.847656 30.9375 30.699219 C 30.285156 30.554688 29.632812 30.417969 28.976562 30.289062 C 28.765625 30.246094 28.519531 30.207031 28.296875 30.242188 C 28.074219 30.277344 27.875 30.386719 27.753906 30.640625 C 27.628906 30.898438 27.675781 31.113281 27.796875 31.300781 C 27.914062 31.484375 28.105469 31.644531 28.277344 31.789062 C 28.644531 32.101562 29.015625 32.410156 29.390625 32.710938 C 29.765625 33.015625 30.144531 33.3125 30.527344 33.605469 C 31.214844 34.132812 31.914062 34.652344 32.613281 35.171875 C 33.308594 35.6875 34.003906 36.210938 34.683594 36.75 C 35.171875 37.136719 35.402344 37.515625 35.386719 37.890625 C 35.371094 38.265625 35.105469 38.636719 34.597656 39.007812 C 34.351562 39.1875 34.09375 39.355469 33.835938 39.527344 C 33.582031 39.695312 33.324219 39.867188 33.074219 40.046875 C 33.046875 40.066406 32.984375 40.128906 32.976562 40.214844 C 32.964844 40.320312 33.03125 40.4375 33.128906 40.476562 C 33.207031 40.507812 33.285156 40.488281 33.3125 40.46875 C 33.636719 40.261719 33.964844 40.054688 34.285156 39.835938 C 34.605469 39.621094 34.921875 39.398438 35.226562 39.160156 C 35.347656 39.066406 35.457031 38.9375 35.550781 38.796875 C 35.640625 38.65625 35.71875 38.5 35.777344 38.351562 C 35.945312 37.914062 35.917969 37.535156 35.765625 37.207031 C 35.617188 36.878906 35.339844 36.597656 35.015625 36.347656 C 34.269531 35.777344 33.515625 35.214844 32.765625 34.65625 C 32.011719 34.09375 31.257812 33.535156 30.515625 32.960938 C 30.113281 32.65625 29.726562 32.332031 29.339844 32.007812 C 28.953125 31.683594 28.570312 31.355469 28.183594 31.03125 C 28.214844 30.953125 28.25 30.875 28.28125 30.796875 C 28.433594 30.804688 28.59375 30.796875 28.75 30.796875 C 28.90625 30.796875 29.058594 30.800781 29.207031 30.839844 C 29.964844 31.019531 30.722656 31.207031 31.480469 31.398438 C 32.238281 31.589844 32.996094 31.785156 33.753906 31.988281 C 34.914062 32.296875 36.074219 32.621094 37.230469 32.941406 C 38.390625 33.261719 39.550781 33.582031 40.71875 33.875 C 41.328125 34.027344 41.929688 34.058594 42.515625 33.957031 C 43.097656 33.855469 43.660156 33.625 44.195312 33.257812 C 44.390625 33.121094 44.589844 32.996094 44.792969 32.871094 C 44.996094 32.746094 45.199219 32.625 45.398438 32.496094 C 46.269531 31.945312 47.148438 31.410156 48.0625 30.941406 C 48.972656 30.472656 49.914062 30.070312 50.917969 29.78125 C 51.316406 29.667969 51.632812 29.644531 51.898438 29.726562 C 52.164062 29.8125 52.375 29.996094 52.570312 30.292969 C 52.738281 30.554688 52.808594 30.832031 52.769531 31.117188 C 52.730469 31.402344 52.585938 31.695312 52.320312 31.976562 C 52.144531 32.167969 51.953125 32.347656 51.753906 32.519531 C 51.550781 32.691406 51.34375 32.855469 51.132812 33.011719 C 50.164062 33.726562 49.1875 34.433594 48.214844 35.140625 C 47.238281 35.847656 46.261719 36.554688 45.292969 37.269531 C 44.710938 37.695312 44.304688 38.214844 44.027344 38.800781 C 43.753906 39.386719 43.613281 40.042969 43.574219 40.738281 C 43.488281 42.164062 43.410156 43.59375 43.332031 45.019531 C 43.25 46.449219 43.167969 47.875 43.066406 49.300781 C 43.039062 49.675781 42.976562 50.046875 42.898438 50.417969 C 42.816406 50.789062 42.71875 51.15625 42.621094 51.519531 C 42.59375 51.625 42.519531 51.738281 42.425781 51.835938 C 42.328125 51.929688 42.214844 52.003906 42.117188 52.023438 C 42.046875 52.039062 41.949219 51.976562 41.855469 51.886719 C 41.761719 51.800781 41.667969 51.683594 41.609375 51.589844 C 41.53125 51.464844 41.460938 51.328125 41.40625 51.191406 C 41.347656 51.050781 41.304688 50.90625 41.277344 50.761719 C 41.105469 49.867188 40.945312 48.972656 40.785156 48.074219 C 40.621094 47.175781 40.460938 46.28125 40.285156 45.386719 C 40.203125 44.949219 40.117188 44.507812 40.015625 44.074219 C 39.914062 43.636719 39.796875 43.207031 39.644531 42.789062 C 39.488281 42.347656 39.214844 42.054688 38.867188 41.914062 C 38.523438 41.773438 38.109375 41.78125 37.664062 41.945312 C 37.476562 42.015625 37.292969 42.101562 37.113281 42.191406 C 36.933594 42.28125 36.75 42.375 36.570312 42.460938 C 35.832031 42.804688 35.085938 43.011719 34.332031 43.070312 C 33.574219 43.128906 32.804688 43.039062 32.015625 42.792969 C 31.140625 42.519531 30.265625 42.265625 29.375 42.0625 C 28.484375 41.855469 27.585938 41.703125 26.667969 41.625 C 26.441406 41.605469 26.195312 41.574219 25.976562 41.601562 C 25.753906 41.632812 25.558594 41.726562 25.4375 41.964844 C 25.308594 42.210938 25.347656 42.425781 25.460938 42.621094 C 25.574219 42.8125 25.757812 42.984375 25.90625 43.152344 C 26.257812 43.535156 26.613281 43.910156 26.96875 44.289062 C 27.324219 44.664062 27.683594 45.035156 28.046875 45.410156 C 28.464844 45.839844 28.789062 46.304688 29 46.816406 C 29.207031 47.328125 29.300781 47.886719 29.253906 48.496094 C 29.203125 49.226562 29.457031 49.683594 29.855469 49.941406 C 30.253906 50.199219 30.792969 50.261719 31.316406 50.199219 C 31.589844 50.167969 31.796875 50.074219 31.9375 49.921875 C 32.074219 49.769531 32.148438 49.558594 32.144531 49.285156 C 32.140625 48.925781 32.121094 48.566406 32.101562 48.207031 C 32.078125 47.847656 32.046875 47.492188 32.015625 47.132812 C 31.996094 46.933594 31.972656 46.734375 31.941406 46.535156 C 31.90625 46.335938 31.863281 46.136719 31.800781 45.949219 C 31.792969 45.914062 31.765625 45.882812 31.734375 45.851562 C 31.730469 45.847656 31.679688 45.800781 31.621094 45.773438 C 31.503906 45.726562 31.332031 45.753906 31.238281 45.867188 C 31.171875 45.945312 31.171875 46.042969 31.167969 46.109375 C 31.164062 46.191406 31.1875 46.273438 31.21875 46.359375 C 31.246094 46.441406 31.277344 46.527344 31.292969 46.613281 C 31.351562 47.011719 31.417969 47.410156 31.476562 47.808594 C 31.535156 48.207031 31.585938 48.605469 31.617188 49.003906 C 31.636719 49.300781 31.589844 49.484375 31.464844 49.589844 C 31.34375 49.695312 31.136719 49.71875 30.839844 49.6875 C 30.433594 49.644531 30.160156 49.566406 29.996094 49.398438 C 29.832031 49.226562 29.773438 48.964844 29.796875 48.554688 C 29.832031 47.835938 29.722656 47.1875 29.476562 46.589844 C 29.230469 45.996094 28.851562 45.457031 28.359375 44.957031 C 28.0625 44.65625 27.769531 44.351562 27.476562 44.046875 C 27.183594 43.746094 26.894531 43.4375 26.605469 43.128906 C 26.484375 43 26.371094 42.863281 26.25 42.714844 C 26.125 42.5625 26 42.402344 25.851562 42.226562 C 25.972656 42.214844 26.0625 42.207031 26.136719 42.199219 C 26.207031 42.191406 26.265625 42.1875 26.324219 42.1875 C 27.257812 42.210938 28.171875 42.347656 29.070312 42.550781 C 29.96875 42.753906 30.855469 43.023438 31.730469 43.304688 C 32.671875 43.613281 33.578125 43.710938 34.464844 43.621094 C 35.347656 43.53125 36.210938 43.257812 37.070312 42.820312 C 37.203125 42.75 37.335938 42.683594 37.472656 42.617188 C 37.605469 42.554688 37.742188 42.496094 37.882812 42.449219 C 38.191406 42.34375 38.453125 42.332031 38.667969 42.421875 C 38.882812 42.515625 39.046875 42.707031 39.164062 43.007812 C 39.265625 43.269531 39.355469 43.535156 39.429688 43.804688 C 39.507812 44.078125 39.570312 44.351562 39.617188 44.625 C 39.746094 45.394531 39.847656 46.171875 39.957031 46.945312 C 40.039062 47.507812 40.136719 48.089844 40.332031 49.253906 C 40.332031 49.253906 40.421875 49.769531 40.601562 50.503906 C 40.730469 51.042969 40.824219 51.335938 40.996094 51.660156 C 41.109375 51.867188 41.28125 52.140625 41.5625 52.359375 C 41.710938 52.472656 41.878906 52.558594 42.070312 52.597656 C 42.296875 52.644531 42.496094 52.574219 42.65625 52.441406 C 42.816406 52.308594 42.941406 52.113281 43.019531 51.90625 C 43.109375 51.679688 43.1875 51.445312 43.253906 51.210938 C 43.320312 50.972656 43.375 50.734375 43.421875 50.492188 C 43.691406 49.042969 43.820312 47.585938 43.894531 46.121094 C 43.96875 44.65625 43.984375 43.191406 44.023438 41.726562 C 44.050781 40.734375 44.21875 39.851562 44.585938 39.078125 C 44.957031 38.304688 45.527344 37.636719 46.371094 37.074219 C 47.195312 36.523438 48.011719 35.953125 48.816406 35.375 C 49.625 34.792969 50.421875 34.203125 51.222656 33.609375 C 51.535156 33.375 51.84375 33.128906 52.140625 32.863281 C 52.433594 32.601562 52.710938 32.320312 52.964844 32.023438 C 53.242188 31.695312 53.367188 31.335938 53.367188 30.972656 Z M 53.367188 30.972656 " fill-opacity="1" fill-rule="nonzero"/></g></g></g></g><g clip-path="url(#70fa6732d5)"><g clip-path="url(#21570d1891)"><g clip-path="url(#3421fe7eba)"><path fill="#3d3b3a" d="M 33.574219 63.144531 C 34.335938 63.3125 35.105469 63.4375 35.878906 63.527344 C 36.65625 63.621094 37.433594 63.671875 38.210938 63.6875 C 38.992188 63.703125 39.769531 63.679688 40.546875 63.617188 C 41.324219 63.558594 42.097656 63.460938 42.863281 63.324219 C 43.632812 63.1875 44.390625 63.015625 45.140625 62.808594 C 45.894531 62.597656 46.632812 62.351562 47.359375 62.070312 C 48.085938 61.789062 48.800781 61.476562 49.496094 61.125 C 50.191406 60.777344 50.871094 60.394531 51.53125 59.976562 C 52.191406 59.5625 52.828125 59.113281 53.445312 58.636719 C 54.058594 58.160156 54.652344 57.652344 55.21875 57.117188 C 55.785156 56.582031 56.324219 56.023438 56.839844 55.433594 C 57.351562 54.847656 57.835938 54.234375 58.289062 53.601562 C 58.742188 52.96875 59.164062 52.3125 59.554688 51.636719 C 59.941406 50.960938 60.300781 50.269531 60.621094 49.5625 C 60.945312 48.851562 61.230469 48.128906 61.484375 47.390625 C 61.738281 46.652344 61.953125 45.902344 62.132812 45.144531 C 63.617188 38.96875 62.65625 32.578125 59.4375 27.152344 C 59.355469 27.035156 59.257812 27.015625 59.136719 27.085938 C 59.011719 27.160156 58.984375 27.257812 59.050781 27.382812 C 65.558594 38.34375 62.078125 52.796875 51.289062 59.597656 C 40.503906 66.394531 25.964844 63.304688 18.878906 52.703125 C 18.796875 52.589844 18.695312 52.574219 18.574219 52.652344 C 18.457031 52.730469 18.433594 52.832031 18.507812 52.953125 C 22.011719 58.199219 27.363281 61.816406 33.574219 63.144531 Z M 33.574219 63.144531 " fill-opacity="1" fill-rule="evenodd"/></g></g></g></svg>